<svg width="560" height="561" viewBox="0 0 560 561" fill="none" xmlns="http://www.w3.org/2000/svg">
<path fill-rule="evenodd" clip-rule="evenodd" d="M121.471 49.7893C48.1031 100.273 0 184.829 0 280.621C0 283.381 0.0399418 286.132 0.11928 288.873H55.4275L121.471 49.7893ZM0.951719 303.873C3.67707 337.025 12.1777 368.541 25.4454 397.411L51.284 303.873H0.951719ZM35.5313 417.234C83.4442 502.791 174.969 560.621 280 560.621C320.205 560.621 358.431 552.147 392.989 536.888L275.027 303.873H66.8457L35.5313 417.234ZM406.547 530.46C497.602 484.248 560 389.721 560 280.621C560 125.981 434.64 0.621094 280 0.621094C234.504 0.621094 191.542 11.472 153.562 30.727L284.246 288.873H322.239V303.873H291.84L406.547 530.46ZM140.319 37.8961C140.334 37.8872 140.349 37.8783 140.365 37.8695L267.434 288.873H70.9893L140.319 37.8961Z" fill="#E14D4D"/>
</svg>
