<svg width="311" height="582" viewBox="0 0 311 582" fill="none" xmlns="http://www.w3.org/2000/svg">
<rect x="155" width="100" height="465" fill="#4C6044"/>
<rect x="35.0001" y="117" width="100" height="465" fill="#4C6044"/>
<path d="M188.925 216.626L30.4305 217.438L30.39 209.528L188.884 208.716L188.925 216.626ZM238.374 204.361C240.62 204.35 242.528 205.121 244.099 206.676C245.767 208.23 246.607 210.13 246.618 212.376C246.63 214.622 245.81 216.53 244.157 218.101C242.603 219.77 240.703 220.609 238.457 220.621C236.211 220.632 234.303 219.812 232.732 218.16C231.161 216.605 230.37 214.705 230.359 212.459C230.347 210.213 231.119 208.305 232.673 206.734C234.228 205.164 236.128 204.373 238.374 204.361ZM155.394 276.711L30.7373 277.349L30.6968 269.439L189.191 268.628L189.231 276.538L155.394 276.711ZM123.6 275.555L131.928 271.265C139.746 272.201 147.227 274.311 154.373 277.595C161.616 280.878 168.084 285.191 173.775 290.533C179.467 295.875 183.991 302.102 187.348 309.214C190.705 316.326 192.405 324.178 192.449 332.772C192.49 340.78 191.403 347.914 189.189 354.176C187.073 360.437 183.633 365.728 178.87 370.049C174.205 374.37 168.167 377.672 160.757 379.956C153.346 382.24 144.368 383.409 133.821 383.463L31.2834 383.989L31.2429 376.079L133.781 375.553C147.257 375.484 157.648 373.576 164.953 369.827C172.356 366.176 177.506 361.12 180.403 354.66C183.299 348.2 184.726 340.771 184.683 332.372C184.632 322.411 182.342 313.878 177.814 306.772C173.383 299.764 167.836 293.981 161.172 289.426C154.508 284.968 147.753 281.584 140.905 279.275C134.057 277.064 128.289 275.824 123.6 275.555Z" fill="#F7F7FA"/>
</svg>
